<?xml version="1.0" encoding="utf-8"?>
<!-- Generator: Adobe Illustrator 23.0.2, SVG Export Plug-In . SVG Version: 6.00 Build 0)  -->
<svg version="1.1" id="Layer_1" xmlns="http://www.w3.org/2000/svg" xmlns:xlink="http://www.w3.org/1999/xlink" x="0px" y="0px"
	 viewBox="0 0 841.89 595.28" style="enable-background:new 0 0 841.89 595.28;" xml:space="preserve">
<style type="text/css">
	.st0{fill:#3A53A4;}
</style>
<path class="st0" d="M421.19,43.16c0,0,6.54,0.67,6.37,4.44c-0.79,17.74,1.6,17.7,1.6,17.7h-16.25c0,0,2.39,0.03,1.6-17.7
	C414.34,43.82,421.19,43.16,421.19,43.16z"/>
<path class="st0" d="M429.16,65.3c0,0,55.92,23.2,73.31,88.38c13.31,49.86,0.53,156.23,0.53,156.23s36,16.26,53.18,108.91
	c6.06,32.66,6.58,132.71,6.58,132.71l-59.03,0.58c0,0,2.75-40.83-5.66-78.34c-7.4-32.97-45.35-55.51-45.35-55.51l-8.44,133.1
	l-23.09-0.17l-0.12-508.04h-0.2l0.31,508.04l-23.4,0.17l-8.44-133.1c0,0-37.95,22.54-45.35,55.51c-8.41,37.5-5.66,78.34-5.66,78.34
	l-59.03-0.58c0,0,0.53-100.05,6.58-132.71c17.18-92.65,53.18-108.91,53.18-108.91s-12.77-106.37,0.53-156.23
	C357,88.49,412.91,65.3,412.91,65.3"/>
</svg>
